<?xml version="1.0" standalone="no"?><!DOCTYPE svg PUBLIC "-//W3C//DTD SVG 1.1//EN" "http://www.w3.org/Graphics/SVG/1.1/DTD/svg11.dtd"><svg t="1778239489789" class="icon" viewBox="0 0 1024 1024" version="1.1" xmlns="http://www.w3.org/2000/svg" p-id="17835" xmlns:xlink="http://www.w3.org/1999/xlink" width="200" height="200"><path d="M491.52 305.2544s69.376-126.3616 164.6592-109.312S885.76 286.1568 885.76 286.1568s-59.9552 124.1088-166.0928 135.9872S491.52 305.2544 491.52 305.2544z" fill="#2765C1" p-id="17836"></path><path d="M518.912 320.8704s-10.24-143.8208-103.7824-168.2432S168.96 138.24 168.96 138.24s2.3552 138.24 93.7472 193.2288 256.2048-10.5984 256.2048-10.5984z" fill="#2765C1" p-id="17837"></path><path d="M274.5344 504.4736a216.6784 216.6784 0 1 0 216.6784-216.6784 216.6272 216.6272 0 0 0-216.6784 216.6784z m0 0" fill="#E1F1FF" p-id="17838"></path><path d="M491.2128 739.9424a235.52 235.52 0 1 1 166.5536-68.9664 233.9328 233.9328 0 0 1-166.5536 68.9664z m0-433.3568a197.888 197.888 0 1 0 197.8368 197.888 198.0416 198.0416 0 0 0-197.8368-197.888z m0 0" fill="#2765C1" p-id="17839"></path><path d="M518.912 472.7296a13.0048 13.0048 0 0 1-6.8608-2.0992L496.64 460.8l-15.36 9.6768a13.0048 13.0048 0 0 1-6.8608 2.0992 12.032 12.032 0 0 1-6.912-2.2016 12.8 12.8 0 0 1-5.6832-12.4928l3.4816-23.808-14.7456-16.384a13.0048 13.0048 0 0 1-2.4064-12.5952 12.544 12.544 0 0 1 10.0864-8.2944l17.92-3.0208 8.3456-20.48A12.9536 12.9536 0 0 1 496.64 365.5168a12.6464 12.6464 0 0 1 11.8272 7.936l8.3968 20.48 17.92 3.0208a13.2096 13.2096 0 0 1 9.8816 8.2944 12.3904 12.3904 0 0 1-2.3552 12.5952l-14.2848 16.5376 3.4816 23.808a12.5952 12.5952 0 0 1-5.632 12.4928 10.24 10.24 0 0 1-6.7584 2.2016z m0 0" fill="#2765C1" p-id="17840"></path><path d="M496.64 378.112l11.1104 26.9824 24.9856 4.352-18.0736 20.9408 4.2496 29.5936L496.64 446.0544l-22.272 13.824 4.096-29.7984-18.1248-20.48 24.9856-4.352 11.3152-27.136m0-25.6a25.6 25.6 0 0 0-23.7056 15.872l-5.7344 13.824-11.008 1.792a25.6 25.6 0 0 0-15.0016 41.9328l10.24 12.0832-2.4064 18.176a25.6 25.6 0 0 0 11.4176 25.088 26.0096 26.0096 0 0 0 13.9264 4.1472 25.6 25.6 0 0 0 13.568-3.8912L496.64 476.16l8.8064 5.4784a26.0608 26.0608 0 0 0 13.6192 3.8912 25.6 25.6 0 0 0 25.2928-29.3376l-2.6112-18.176 10.24-12.0832a25.6 25.6 0 0 0 4.8128-25.6 25.1904 25.1904 0 0 0-19.5072-16.3328l-10.9568-1.8432-5.7856-13.824a26.1632 26.1632 0 0 0-23.9104-15.872z m0 0" fill="#2765C1" p-id="17841"></path><path d="M589.824 898.9184a194.9184 194.9184 0 1 0-104.2944-164.6592 194.56 194.56 0 0 0 104.2944 164.6592z m0 0" fill="#E1F1FF" p-id="17842"></path><path d="M844.8 631.8592a248.1664 248.1664 0 0 1 3.072 38.2464 240.64 240.64 0 0 1-239.104 240.64 194.9184 194.9184 0 0 0 236.032-278.8864z m0 0" fill="#5093FF" p-id="17843"></path><path d="M680.0384 938.24a212.5824 212.5824 0 1 1 63.3856-9.7792 212.5312 212.5312 0 0 1-63.3856 9.7792z m-157.44-294.656a177.92 177.92 0 1 0 104.6016-87.04 178.2272 178.2272 0 0 0-104.6016 87.04z m0 0" fill="#2765C1" p-id="17844"></path><path d="M715.5712 712.5504a12.9024 12.9024 0 0 1-4.6592-4.4544l-8.2432-14.2848-16.4352 1.3312a12.3392 12.3392 0 0 1-6.2976-1.3312 11.7248 11.7248 0 0 1-4.6592-4.5568 11.5712 11.5712 0 0 1 0.768-12.3904l12.6976-17.5104-4.352-19.0976a11.9808 11.9808 0 0 1 3.3792-11.1104 11.5712 11.5712 0 0 1 11.4176-2.5088l15.6672 5.12 15.36-12.6976a11.4176 11.4176 0 0 1 18.7904 9.8816l-1.8432 19.6608 13.056 9.984a11.52 11.52 0 0 1-2.7136 19.9168l-18.2784 7.2704-7.168 20.48a11.52 11.52 0 0 1-9.7792 7.6288 12.0832 12.0832 0 0 1-6.5536-1.28z m0 0" fill="#2765C1" p-id="17845"></path><path d="M737.28 627.8656l-2.4064 26.0608 18.0736 13.9264-23.1424 9.1136-8.96 25.344-11.9296-20.48-23.5008 1.7408 15.7696-21.76-5.632-24.2176 21.7088 6.912 20.0192-16.6912m10.6496-20.48a23.04 23.04 0 0 0-25.6 2.7136l-10.24 8.6016-9.5744-3.0208a22.7328 22.7328 0 0 0-22.6304 5.12 23.3472 23.3472 0 0 0-6.8608 22.3232l3.2768 13.8752-9.6768 13.4144a23.2448 23.2448 0 0 0-1.536 24.7808 24.6272 24.6272 0 0 0 9.3696 9.1136 23.6032 23.6032 0 0 0 12.4928 2.6112l9.216-0.6656 4.7104 8.0384a22.1184 22.1184 0 0 0 9.216 8.8064 22.3744 22.3744 0 0 0 12.8512 2.5088 23.2448 23.2448 0 0 0 19.5584-15.36l5.4272-15.36 13.3632-5.12a23.0912 23.0912 0 0 0 14.3872-18.2272 22.8352 22.8352 0 0 0-8.8064-21.4528l-7.936-6.0928 1.1776-13.4656a23.0912 23.0912 0 0 0-12.1856-22.7328z m0 0" fill="#2765C1" p-id="17846"></path><path d="M90.6752 694.5792a194.9696 194.9696 0 1 0 194.9696-194.9184 194.9184 194.9184 0 0 0-194.9696 194.9184z m0 0" fill="#E1F1FF" p-id="17847"></path><path d="M451.5328 603.4944a247.6544 247.6544 0 0 1 3.0208 38.2464 240.64 240.64 0 0 1-239.0528 240.64 194.9184 194.9184 0 0 0 236.032-278.8352z m0 0" fill="#5093FF" p-id="17848"></path><path d="M285.6448 906.496a211.9168 211.9168 0 1 1 211.8656-211.9168 212.1728 212.1728 0 0 1-211.8656 211.9168z m0-389.888a177.9712 177.9712 0 1 0 177.92 177.9712 178.176 178.176 0 0 0-177.92-177.9712z m0 0" fill="#2765C1" p-id="17849"></path><path d="M310.528 666.0096a11.8272 11.8272 0 0 1-6.1952-1.8432L290.4064 655.36 276.48 664.1664a11.8272 11.8272 0 0 1-6.1952 1.8432 11.264 11.264 0 0 1-6.2976-1.9456 11.8784 11.8784 0 0 1-5.12-11.3152l3.072-21.4528-12.8512-14.848a12.032 12.032 0 0 1-2.1504-11.4176A11.3664 11.3664 0 0 1 256 597.504l16.1792-2.7136 7.6288-18.2784a11.7248 11.7248 0 0 1 10.6496-7.168 11.4176 11.4176 0 0 1 10.6496 7.168l7.6288 18.2784 16.1792 2.7136a11.6224 11.6224 0 0 1 8.9088 7.5264 11.264 11.264 0 0 1-2.1504 11.4176l-12.8512 14.848 3.072 21.4528a11.776 11.776 0 0 1-5.12 11.3152 9.5232 9.5232 0 0 1-6.0928 1.9456z m0 0" fill="#2765C1" p-id="17850"></path><path d="M290.5088 580.9664l9.984 24.2688 22.528 3.8912-16.2816 18.8416 3.7888 26.624-20.1216-12.5952-20.0192 12.4928 3.84-26.624-16.3328-18.5856 22.528-3.8912 10.24-24.1664m0-23.1424a22.9888 22.9888 0 0 0-21.2992 14.2336l-5.12 12.4928-9.8816 1.7408A23.0912 23.0912 0 0 0 240.64 624.128l9.216 10.752-2.4064 16.2816a23.2448 23.2448 0 0 0 10.24 22.7328 22.6304 22.6304 0 0 0 12.5952 3.6864 23.6544 23.6544 0 0 0 12.288-3.4816l7.8336-4.864 7.8336 4.864a22.2208 22.2208 0 0 0 12.288 3.4816 24.0128 24.0128 0 0 0 12.5952-3.6864 22.9888 22.9888 0 0 0 10.24-22.7328l-2.4064-16.2816 9.3696-10.9056a23.04 23.04 0 0 0 4.1984-22.9376 22.7328 22.7328 0 0 0-17.8176-14.8992l-9.8816-1.7408-5.12-12.4928a22.6816 22.6816 0 0 0-21.1968-13.824z m0 0M132.6592 688.2816a11.264 11.264 0 0 1-1.8432 0 8.704 8.704 0 0 1-6.7584-10.24 186.4192 186.4192 0 0 1 67.6352-100.5568 8.8576 8.8576 0 0 1 10.6496 14.1312 169.8816 169.8816 0 0 0-61.0816 90.112 8.704 8.704 0 0 1-8.6016 6.9632z m0 0M215.7056 562.6368a9.9328 9.9328 0 1 0 5.12-8.6016 9.9328 9.9328 0 0 0-5.12 8.6016z m0 0M333.3632 450.56a9.2672 9.2672 0 0 1-3.072-0.5632 8.8576 8.8576 0 0 1-5.12-11.264A186.1632 186.1632 0 0 1 406.528 348.7744a8.8064 8.8064 0 1 1 8.448 15.36 171.9808 171.9808 0 0 0-73.3696 80.384A8.6528 8.6528 0 0 1 333.3632 450.56z m0 0M440.7808 348.9792A9.9328 9.9328 0 1 0 432.4352 337.92a9.984 9.984 0 0 0 8.3456 11.264z m0 0M532.1728 727.6544a4.7616 4.7616 0 0 1-1.1776 0 8.8064 8.8064 0 0 1-7.4752-9.9328 185.1392 185.1392 0 0 1 59.8528-105.3184 8.8064 8.8064 0 1 1 11.6736 13.1584 169.472 169.472 0 0 0-54.0672 94.464 8.8576 8.8576 0 0 1-8.8064 7.7312z m0 0M626.0224 603.3408a9.9328 9.9328 0 1 0-8.3968-11.2128 9.9328 9.9328 0 0 0 8.3968 11.2128z m0 0" fill="#2765C1" p-id="17851"></path></svg>